<?xml version="1.0" encoding="utf-8"?>
<!-- Svg Vector Icons : http://www.onlinewebfonts.com/icon -->
<!DOCTYPE svg PUBLIC "-//W3C//DTD SVG 1.1//EN" "http://www.w3.org/Graphics/SVG/1.1/DTD/svg11.dtd">
<svg version="1.1" xmlns="http://www.w3.org/2000/svg" xmlns:xlink="http://www.w3.org/1999/xlink" x="0px" y="0px" viewBox="0 0 1000 1000" enable-background="new 0 0 1000 1000" xml:space="preserve">
<metadata> Svg Vector Icons : http://www.onlinewebfonts.com/icon </metadata>
<g><g transform="translate(0.000000,511.000000) scale(0.100000,-0.100000)"><path d="M4679.7,5007.8c-756.8-75.7-1257.9-210.7-1840.9-499.1C1838.6,4015.7,1092,3269.1,599.1,2268.9C253.4,1571.4,100,904.6,100,111c0-793.6,153.4-1460.4,499.1-2157.9c488.9-992,1239.5-1746.8,2219.3-2229.5c343.6-169.8,605.4-270,902-347.7c732.3-190.2,1450.2-216.8,2176.4-83.8c1984.1,368.2,3550.9,1935,3919,3917c133,722.1,108.4,1403.2-73.6,2131.4c-81.8,327.3-180,587-358,949.1c-482.7,979.8-1237.5,1730.4-2229.5,2219.3c-658.7,325.2-1300.9,482.7-2049.6,499.1C4915,5011.9,4724.7,5011.9,4679.7,5007.8z M5671.8,4314.4c1231.3-208.6,2292.9-916.3,2943.4-1961.6c605.4-971.6,787.5-2176.3,503.2-3311.6c-180-711.8-572.7-1395-1114.8-1937c-644.3-644.3-1415.5-1039.1-2342-1200.7c-288.4-49.1-1041.1-49.1-1329.5,0c-928.6,163.6-1703.8,558.4-2342,1200.7c-644.3,644.3-1039.1,1417.5-1200.7,2342c-49.1,290.5-49.1,1043.2,0,1329.5c161.6,918.4,552.3,1687.5,1180.2,2321.6c683.2,691.4,1501.3,1098.4,2485.2,1237.5C4720.6,4371.6,5399.7,4361.4,5671.8,4314.4z"/><path d="M4432.2,2704.6c-85.9-40.9-90-79.8-90-1028.8V765.5H3432c-621.8,0-924.5-6.1-957.3-22.5c-88-40.9-96.1-92-96.1-632c0-540,8.2-591.1,96.1-632c32.7-16.4,335.4-22.5,957.3-22.5h910.2v-910.2c0-621.8,6.1-924.5,22.5-957.3c40.9-88,92-96.1,632-96.1s591.1,8.2,632,96.1c16.4,32.7,22.5,335.4,22.5,957.3v910.2h910.2c621.8,0,924.5,6.1,957.2,22.5c88,40.9,96.2,92.1,96.2,632c0,540-8.2,591.1-96.2,632c-32.7,16.4-335.4,22.5-957.2,22.5h-910.2v910.2c0,621.8-6.2,924.5-22.5,957.3c-12.3,28.6-45,61.4-73.7,73.6C5491.8,2735.3,4493.6,2735.3,4432.2,2704.6z"/></g></g>
</svg>